HIERARCHY
ROOT Hips
{
  OFFSET 5.72205e-005 65.662 3.42586
  CHANNELS 6 Xposition Yposition Zposition Zrotation Xrotation Yrotation
  JOINT Chest
  {
    OFFSET 0 8.7983 -4.7612
    CHANNELS 6 Xposition Yposition Zposition Zrotation Xrotation Yrotation
    JOINT Chest2
    {
      OFFSET 0 8.0291 0.4195
      CHANNELS 6 Xposition Yposition Zposition Zrotation Xrotation Yrotation
      JOINT Chest3
      {
        OFFSET 0 9.9351 -2.2114
        CHANNELS 6 Xposition Yposition Zposition Zrotation Xrotation Yrotation
        JOINT Neck
        {
          OFFSET 0 22.3885 -0.4656
          CHANNELS 6 Xposition Yposition Zposition Zrotation Xrotation Yrotation
          JOINT Head
          {
            OFFSET -0.0001 12.643 3.4389
            CHANNELS 6 Xposition Yposition Zposition Zrotation Xrotation Yrotation
            End Site
            {
              OFFSET 0.0001 17.6655 0.5274
            }
          }
        }
        JOINT LeftCollar
        {
          OFFSET 2.2603 21.606 7.4023
          CHANNELS 6 Xposition Yposition Zposition Zrotation Xrotation Yrotation
          JOINT LeftShoulder
          {
            OFFSET 13.5163 -1.1332 -5.0146
            CHANNELS 6 Xposition Yposition Zposition Zrotation Xrotation Yrotation
            JOINT LeftElbow
            {
              OFFSET -0.0995 -28.05 -0.2431
              CHANNELS 6 Xposition Yposition Zposition Zrotation Xrotation Yrotation
              JOINT LeftWrist
              {
                OFFSET 0.0679 -23.3996 -0.1402
                CHANNELS 6 Xposition Yposition Zposition Zrotation Xrotation Yrotation
                JOINT LeftFinger1
                {
                  OFFSET 0.7932 -9.069 2.5189
                  CHANNELS 6 Xposition Yposition Zposition Zrotation Xrotation Yrotation
                  JOINT LeftFinger11
                  {
                    OFFSET -0.8272 -3.3923 0.5977
                    CHANNELS 6 Xposition Yposition Zposition Zrotation Xrotation Yrotation
                    JOINT LeftFinger12
                    {
                      OFFSET -0.5649 -2.3158 0.4082
                      CHANNELS 6 Xposition Yposition Zposition Zrotation Xrotation Yrotation
                      End Site
                      {
                        OFFSET -0.4919 -1.6479 0.2673
                      }
                    }
                  }
                }
                JOINT LeftFinger2
                {
                  OFFSET 0.9159 -9.2044 0.2193
                  CHANNELS 6 Xposition Yposition Zposition Zrotation Xrotation Yrotation
                  JOINT LeftFinger21
                  {
                    OFFSET 0.0117 -4.1944 -0.0248
                    CHANNELS 6 Xposition Yposition Zposition Zrotation Xrotation Yrotation
                    JOINT LeftFinger22
                    {
                      OFFSET 0.0071 -2.3249 -0.0142
                      CHANNELS 6 Xposition Yposition Zposition Zrotation Xrotation Yrotation
                      End Site
                      {
                        OFFSET -0.1475 -2.0882 0.0028
                      }
                    }
                  }
                }
                JOINT LeftFinger3
                {
                  OFFSET 0.6113 -8.7231 -2.0637
                  CHANNELS 6 Xposition Yposition Zposition Zrotation Xrotation Yrotation
                  JOINT LeftFinger31
                  {
                    OFFSET -0.1927 -3.8059 -0.2383
                    CHANNELS 6 Xposition Yposition Zposition Zrotation Xrotation Yrotation
                    JOINT LeftFinger32
                    {
                      OFFSET -0.1091 -2.1688 -0.1362
                      CHANNELS 6 Xposition Yposition Zposition Zrotation Xrotation Yrotation
                      End Site
                      {
                        OFFSET -0.2358 -1.9176 -0.0906
                      }
                    }
                  }
                }
                JOINT LeftFinger4
                {
                  OFFSET -0.6151 -8.0947 -3.5641
                  CHANNELS 6 Xposition Yposition Zposition Zrotation Xrotation Yrotation
                  JOINT LeftFinger41
                  {
                    OFFSET -0.4882 -2.341 -0.6462
                    CHANNELS 6 Xposition Yposition Zposition Zrotation Xrotation Yrotation
                    JOINT LeftFinger42
                    {
                      OFFSET -0.3575 -1.7167 -0.4742
                      CHANNELS 6 Xposition Yposition Zposition Zrotation Xrotation Yrotation
                      End Site
                      {
                        OFFSET -0.4187 -1.5237 -0.3496
                      }
                    }
                  }
                }
                JOINT LeftFinger0
                {
                  OFFSET -1.42 -1.8761 1.4223
                  CHANNELS 6 Xposition Yposition Zposition Zrotation Xrotation Yrotation
                  JOINT LeftFinger01
                  {
                    OFFSET -1.1471 -3.4929 2.6334
                    CHANNELS 6 Xposition Yposition Zposition Zrotation Xrotation Yrotation
                    JOINT LeftFinger02
                    {
                      OFFSET -0.823 -2.3 1.6571
                      CHANNELS 6 Xposition Yposition Zposition Zrotation Xrotation Yrotation
                      End Site
                      {
                        OFFSET -0.5822 -1.6914 1.1582
                      }
                    }
                  }
                }
              }
            }
          }
        }
        JOINT RightCollar
        {
          OFFSET -2.2603 21.606 7.4023
          CHANNELS 6 Xposition Yposition Zposition Zrotation Xrotation Yrotation
          JOINT RightShoulder
          {
            OFFSET -13.5187 -1.1334 -5.0155
            CHANNELS 6 Xposition Yposition Zposition Zrotation Xrotation Yrotation
            JOINT RightElbow
            {
              OFFSET 0.0994 -28.0499 -0.2431
              CHANNELS 6 Xposition Yposition Zposition Zrotation Xrotation Yrotation
              JOINT RightWrist
              {
                OFFSET -0.0679 -23.3996 -0.1402
                CHANNELS 6 Xposition Yposition Zposition Zrotation Xrotation Yrotation
                JOINT RightFinger1
                {
                  OFFSET -0.7932 -9.0691 2.5189
                  CHANNELS 6 Xposition Yposition Zposition Zrotation Xrotation Yrotation
                  JOINT RightFinger11
                  {
                    OFFSET 0.8272 -3.3923 0.5977
                    CHANNELS 6 Xposition Yposition Zposition Zrotation Xrotation Yrotation
                    JOINT RightFinger12
                    {
                      OFFSET 0.565 -2.3158 0.4082
                      CHANNELS 6 Xposition Yposition Zposition Zrotation Xrotation Yrotation
                      End Site
                      {
                        OFFSET 0.4919 -1.6479 0.2673
                      }
                    }
                  }
                }
                JOINT RightFinger2
                {
                  OFFSET -0.916 -9.2044 0.2193
                  CHANNELS 6 Xposition Yposition Zposition Zrotation Xrotation Yrotation
                  JOINT RightFinger21
                  {
                    OFFSET -0.0117 -4.1944 -0.0248
                    CHANNELS 6 Xposition Yposition Zposition Zrotation Xrotation Yrotation
                    JOINT RightFinger22
                    {
                      OFFSET -0.0071 -2.3249 -0.0142
                      CHANNELS 6 Xposition Yposition Zposition Zrotation Xrotation Yrotation
                      End Site
                      {
                        OFFSET 0.1475 -2.0882 0.0028
                      }
                    }
                  }
                }
                JOINT RightFinger3
                {
                  OFFSET -0.6113 -8.7231 -2.0637
                  CHANNELS 6 Xposition Yposition Zposition Zrotation Xrotation Yrotation
                  JOINT RightFinger31
                  {
                    OFFSET 0.1927 -3.8059 -0.2383
                    CHANNELS 6 Xposition Yposition Zposition Zrotation Xrotation Yrotation
                    JOINT RightFinger32
                    {
                      OFFSET 0.1091 -2.1688 -0.1362
                      CHANNELS 6 Xposition Yposition Zposition Zrotation Xrotation Yrotation
                      End Site
                      {
                        OFFSET 0.2358 -1.9176 -0.0906
                      }
                    }
                  }
                }
                JOINT RightFinger4
                {
                  OFFSET 0.6151 -8.0947 -3.564
                  CHANNELS 6 Xposition Yposition Zposition Zrotation Xrotation Yrotation
                  JOINT RightFinger41
                  {
                    OFFSET 0.4882 -2.341 -0.6462
                    CHANNELS 6 Xposition Yposition Zposition Zrotation Xrotation Yrotation
                    JOINT RightFinger42
                    {
                      OFFSET 0.3574 -1.7166 -0.4742
                      CHANNELS 6 Xposition Yposition Zposition Zrotation Xrotation Yrotation
                      End Site
                      {
                        OFFSET 0.4187 -1.5237 -0.3496
                      }
                    }
                  }
                }
                JOINT RightFinger0
                {
                  OFFSET 1.4199 -1.8761 1.4221
                  CHANNELS 6 Xposition Yposition Zposition Zrotation Xrotation Yrotation
                  JOINT RightFinger01
                  {
                    OFFSET 1.1472 -3.4929 2.6336
                    CHANNELS 6 Xposition Yposition Zposition Zrotation Xrotation Yrotation
                    JOINT RightFinger02
                    {
                      OFFSET 0.8229 -2.3 1.6571
                      CHANNELS 6 Xposition Yposition Zposition Zrotation Xrotation Yrotation
                      End Site
                      {
                        OFFSET 0.5822 -1.6914 1.1582
                      }
                    }
                  }
                }
              }
            }
          }
        }
      }
    }
  }
  JOINT RightHip
  {
    OFFSET -9.412 3.9771 -0.7758
    CHANNELS 6 Xposition Yposition Zposition Zrotation Xrotation Yrotation
    JOINT RightKnee
    {
      OFFSET -0.7531 -40.938 0
      CHANNELS 6 Xposition Yposition Zposition Zrotation Xrotation Yrotation
      JOINT RightAnkle
      {
        OFFSET 0 -40.1986 0
        CHANNELS 6 Xposition Yposition Zposition Zrotation Xrotation Yrotation
        JOINT RightToe
        {
          OFFSET 0 -4.4182 9.239
          CHANNELS 6 Xposition Yposition Zposition Zrotation Xrotation Yrotation
          End Site
          {
            OFFSET 0 0 6.1981
          }
        }
      }
    }
  }
  JOINT LeftHip
  {
    OFFSET 9.4119 3.9773 -0.7758
    CHANNELS 6 Xposition Yposition Zposition Zrotation Xrotation Yrotation
    JOINT LeftKnee
    {
      OFFSET 0.7532 -40.9383 0
      CHANNELS 6 Xposition Yposition Zposition Zrotation Xrotation Yrotation
      JOINT LeftAnkle
      {
        OFFSET 0 -40.1986 0
        CHANNELS 6 Xposition Yposition Zposition Zrotation Xrotation Yrotation
        JOINT LeftToe
        {
          OFFSET 0 -4.4182 9.239
          CHANNELS 6 Xposition Yposition Zposition Zrotation Xrotation Yrotation
          End Site
          {
            OFFSET 0 0 6.1981
          }
        }
      }
    }
  }
}
MOTION
Frames:	4
Frame Time:	0.0333333
7.95842 5.48551 7.89016 92.0831 0.254834 -179.705 0 8.7983 -4.7612 0.455844 0.893906 -0.330894 8.88178e-016 8.0291 0.4195 0.917024 1.78513 -0.669009 0 9.9351 -2.2114 0.917005 1.78513 -0.669009 -8.88178e-016 22.3885 -0.4656 9.03901 16.7032 -2.70322 -0.0001 12.643 3.4389 -3.32382e-006 15.4505 -1.35734e-005 2.2603 21.606 7.4023 -10.684 -9.05136 -25.355 13.5163 -1.1332 -5.0146 27.86 -19.8735 5.39861 -0.0995 -28.05 -0.2431 -35.4032 -60.1556 -22.3266 0.0679 -23.3996 -0.1402 -55.7148 1.2646 -1.53225 0.7932 -9.069 2.5189 2.11127e-006 2.19004e-007 3.12446e-007 -0.8272 -3.3923 0.5977 -4.64479e-006 -4.07081e-006 -6.87382e-007 -0.5649 -2.3158 0.4082 -6.73962e-006 -2.1169e-006 -1.40409e-006 0.9159 -9.2044 0.2193 2.11127e-006 2.19004e-007 3.12446e-007 0.0117 -4.1944 -0.0248 -0.0127995 0.00232452 9.62806e-005 0.0071 -2.3249 -0.0142 2.11125e-006 3.49831e-007 3.12532e-007 0.6113 -8.7231 -2.0637 2.11127e-006 2.19004e-007 3.12446e-007 -0.1927 -3.8059 -0.2383 -0.0160823 0.0030032 0.00086753 -0.1091 -2.1688 -0.1362 -3.13035e-006 6.15485e-006 6.79967e-006 -0.6151 -8.0947 -3.5641 2.11127e-006 2.19004e-007 3.12446e-007 -0.4882 -2.341 -0.6462 -0.0125922 0.00313329 0.00283239 -0.3575 -1.7167 -0.4742 -6.30231e-006 -5.9113e-006 -1.74588e-006 -1.42 -1.8761 1.4223 2.11127e-006 2.19004e-007 3.12446e-007 -1.1471 -3.4929 2.6334 -4.64479e-006 -4.07081e-006 -6.87382e-007 -0.823 -2.3 1.6571 -6.73962e-006 -2.1169e-006 -1.40409e-006 -2.2603 21.606 7.4023 -15.6417 -12.7237 -8.04744 -13.5187 -1.1334 -5.0155 -29.2085 -45.6702 -3.71728 0.0994 -28.0499 -0.2431 75.9082 -60.3444 11.3913 -0.0679 -23.3996 -0.1402 45.3904 -4.9267 -10.5964 -0.7932 -9.0691 2.5189 -3.97569e-016 4.76151e-015 -2.48481e-016 0.8272 -3.3923 0.5977 3.97569e-016 1.55611e-015 -3.47873e-016 0.565 -2.3158 0.4082 -3.97569e-016 -4.82674e-015 -1.98785e-016 -0.916 -9.2044 0.2193 -3.97569e-016 4.76151e-015 -2.48481e-016 -0.0117 -4.1944 -0.0248 0.0129494 0.00230689 -9.59983e-005 -0.0071 -2.3249 -0.0142 7.95139e-016 -4.73356e-015 -6.4605e-016 -0.6113 -8.7231 -2.0637 -3.97569e-016 4.76151e-015 -2.48481e-016 0.1927 -3.8059 -0.2383 0.0163076 0.0030285 -0.00086316 0.1091 -2.1688 -0.1362 -1.12826e-032 2.168e-015 2.98177e-016 0.6151 -8.0947 -3.564 -3.97569e-016 4.76151e-015 -2.48481e-016 0.4882 -2.341 -0.6462 0.0145722 0.00366927 -0.00324706 0.3574 -1.7166 -0.4742 -1.27222e-014 4.26766e-015 -7.45443e-016 1.4199 -1.8761 1.4221 -3.97569e-016 4.76151e-015 -2.48481e-016 1.1472 -3.4929 2.6336 3.97569e-016 1.55611e-015 -3.47873e-016 0.8229 -2.3 1.6571 -3.97569e-016 -4.82674e-015 -1.98785e-016 -9.412 3.9771 -0.7758 -18.8549 -34.9325 -15.1234 -0.7531 -40.938 -5.32907e-015 88.8644 28.4573 -101.733 1.77636e-015 -40.1986 -7.10543e-015 5.16638 15.6353 6.93655 -1.77636e-015 -4.4182 9.239 -2.46823e-006 -7.57444e-006 7.94188e-006 9.4119 3.9773 -0.7758 6.60603 0.685075 8.66349 0.7532 -40.9383 -1.77636e-015 -2.23391 57.6048 -0.674921 8.88179e-016 -40.1986 0 3.30711 32.2006 1.31513 8.88179e-016 -4.4182 9.239 7.95139e-016 0 -7.20594e-016 
8.02962 5.7627 8.37601 92.3597 0.310429 -179.518 8.88178e-016 8.7983 -4.7612 0.451909 1.25088 -0.339373 0 8.0291 0.4195 0.911557 2.49902 -0.688852 0 9.9351 -2.2114 0.911566 2.49902 -0.688852 8.88178e-016 22.3885 -0.4656 8.0668 14.125 -2.23799 -0.0001 12.643 3.4389 -7.31017e-006 14.1335 5.48368e-006 2.2603 21.606 7.4023 -10.5839 -10.6181 -24.2207 13.5163 -1.1332 -5.0146 27.0858 -21.1735 4.46585 -0.0995 -28.05 -0.2431 -34.4402 -54.3519 -20.2492 0.0679 -23.3996 -0.1402 -54.2238 0.811116 -2.48138 0.7932 -9.069 2.5189 -4.96962e-017 -3.13707e-016 -3.97569e-016 -0.8272 -3.3923 0.5977 -4.96962e-017 -3.49737e-015 -3.97569e-016 -0.5649 -2.3158 0.4082 -0 -1.90709e-015 -0 0.9159 -9.2044 0.2193 -4.96962e-017 -3.13707e-016 -3.97569e-016 0.0117 -4.1944 -0.0248 -0.0128595 0.00232761 8.11036e-005 0.0071 -2.3249 -0.0142 9.93923e-017 -1.01567e-015 -0 0.6113 -8.7231 -2.0637 -4.96962e-017 -3.13707e-016 -3.97569e-016 -0.1927 -3.8059 -0.2383 -0.0160364 0.00299027 0.000861051 -0.1091 -2.1688 -0.1362 -9.93923e-017 1.43187e-015 -0 -0.6151 -8.0947 -3.5641 -4.96962e-017 -3.13707e-016 -3.97569e-016 -0.4882 -2.341 -0.6462 -0.0125838 0.00313243 0.00282483 -0.3575 -1.7167 -0.4742 -1.57763e-032 -2.2736e-015 -3.97569e-016 -1.42 -1.8761 1.4223 -4.96962e-017 -3.13707e-016 -3.97569e-016 -1.1471 -3.4929 2.6334 -4.96962e-017 -3.49737e-015 -3.97569e-016 -0.823 -2.3 1.6571 -0 -1.90709e-015 -0 -2.2603 21.606 7.4023 -15.4586 -14.0538 -6.17907 -13.5187 -1.1334 -5.0155 -29.9606 -45.8281 -4.35614 0.0994 -28.0499 -0.2431 74.3359 -60.4506 9.97065 -0.0679 -23.3996 -0.1402 44.6797 -4.62339 -9.6942 -0.7932 -9.0691 2.5189 -5.32368e-032 8.76827e-015 3.47873e-016 0.8272 -3.3923 0.5977 3.97569e-016 8.76516e-015 2.98177e-016 0.565 -2.3158 0.4082 1.19271e-015 8.76516e-015 3.47873e-016 -0.916 -9.2044 0.2193 -5.32368e-032 8.76827e-015 3.47873e-016 -0.0117 -4.1944 -0.0248 0.0129637 0.00232254 -8.181e-005 -0.0071 -2.3249 -0.0142 -3.97569e-016 2.49723e-015 4.96962e-017 -0.6113 -8.7231 -2.0637 -5.32368e-032 8.76827e-015 3.47873e-016 0.1927 -3.8059 -0.2383 0.0163127 0.00302197 -0.000860649 0.1091 -2.1688 -0.1362 7.95139e-016 1.66793e-015 -4.96962e-017 0.6151 -8.0947 -3.564 -5.32368e-032 8.76827e-015 3.47873e-016 0.4882 -2.341 -0.6462 0.0145851 0.00367677 -0.003249 0.3574 -1.7166 -0.4742 -1.20061e-005 1.28511e-005 -8.44912e-006 1.4199 -1.8761 1.4221 -5.32368e-032 8.76827e-015 3.47873e-016 1.1472 -3.4929 2.6336 3.97569e-016 8.76516e-015 2.98177e-016 0.8229 -2.3 1.6571 1.19271e-015 8.76516e-015 3.47873e-016 -9.412 3.9771 -0.7758 -18.734 -35.3801 -15.1957 -0.7531 -40.938 -3.55271e-015 88.8604 28.4572 -101.728 -8.88179e-016 -40.1986 7.10543e-015 4.95551 15.6868 6.44112 1.77636e-015 -4.4182 9.239 -1.59028e-015 -1.49206e-006 -0 9.4119 3.9773 -0.7758 6.59882 0.0206046 8.73285 0.7532 -40.9383 1.77636e-015 -2.0888 58.262 -0.774241 -1.77636e-015 -40.1986 1.42109e-014 3.2895 32.1748 1.33512 -4.44089e-016 -4.4182 9.239 3.46862e-007 -1.86985e-005 1.46991e-005 
8.09494 6.04618 8.82942 92.7921 0.399149 -179.225 0 8.7983 -4.7612 0.448215 1.58843 -0.347343 -8.88179e-016 8.0291 0.4195 0.906619 3.17407 -0.707522 8.88178e-016 9.9351 -2.2114 0.906587 3.17407 -0.707523 -8.88179e-016 22.3885 -0.4656 7.17385 11.6741 -1.84324 -0.0001 12.643 3.4389 1.69563e-005 12.8896 3.12455e-006 2.2603 21.606 7.4023 -10.4603 -12.0977 -23.1395 13.5163 -1.1332 -5.0146 26.3266 -22.3907 3.55871 -0.0995 -28.05 -0.2431 -33.9099 -48.8377 -18.616 0.0679 -23.3996 -0.1402 -52.8216 0.360087 -3.36651 0.7932 -9.069 2.5189 2.10187e-006 -2.78063e-005 3.70548e-007 -0.8272 -3.3923 0.5977 -5.07494e-006 -0.000229671 -9.53112e-007 -0.5649 -2.3158 0.4082 9.93923e-017 -5.53025e-015 5.96354e-016 0.9159 -9.2044 0.2193 2.10187e-006 -2.78063e-005 3.70548e-007 0.0117 -4.1944 -0.0248 -0.0128293 0.0022143 8.02156e-005 0.0071 -2.3249 -0.0142 1.3053e-006 -0.000183283 7.10617e-006 0.6113 -8.7231 -2.0637 2.10187e-006 -2.78063e-005 3.70548e-007 -0.1927 -3.8059 -0.2383 -0.0160362 0.0026231 0.000863341 -0.1091 -2.1688 -0.1362 2.9721e-006 0.000184166 5.82752e-007 -0.6151 -8.0947 -3.5641 2.10187e-006 -2.78063e-005 3.70548e-007 -0.4882 -2.341 -0.6462 -0.0125779 0.00282987 0.00283337 -0.3575 -1.7167 -0.4742 4.50077e-007 0.000227034 1.381e-007 -1.42 -1.8761 1.4223 2.10187e-006 -2.78063e-005 3.70548e-007 -1.1471 -3.4929 2.6334 -5.07494e-006 -0.000229671 -9.53112e-007 -0.823 -2.3 1.6571 9.93923e-017 -5.53025e-015 5.96354e-016 -2.2603 21.606 7.4023 -15.2439 -15.3068 -4.39615 -13.5187 -1.1334 -5.0155 -30.6751 -45.9714 -4.96376 0.0994 -28.0499 -0.2431 72.8435 -60.5324 8.62124 -0.0679 -23.3996 -0.1402 44.0044 -4.34745 -8.83905 -0.7932 -9.0691 2.5189 4.63888e-006 1.14935e-005 -1.34705e-006 0.8272 -3.3923 0.5977 6.53198e-006 -4.57135e-006 9.52529e-006 0.565 -2.3158 0.4082 -4.76037e-006 5.92911e-006 2.67011e-007 -0.916 -9.2044 0.2193 4.63888e-006 1.14935e-005 -1.34705e-006 -0.0117 -4.1944 -0.0248 0.0129749 0.00231023 -7.22882e-005 -0.0071 -2.3249 -0.0142 -8.33268e-006 8.24962e-006 6.2632e-007 -0.6113 -8.7231 -2.0637 4.63888e-006 1.14935e-005 -1.34705e-006 0.1927 -3.8059 -0.2383 0.0163448 0.00304298 -0.000865206 0.1091 -2.1688 -0.1362 4.2016e-006 -3.56606e-006 9.58599e-006 0.6151 -8.0947 -3.564 4.63888e-006 1.14935e-005 -1.34705e-006 0.4882 -2.341 -0.6462 0.0146406 0.00368964 -0.00326026 0.3574 -1.7166 -0.4742 -7.50325e-006 9.5254e-006 4.26523e-007 1.4199 -1.8761 1.4221 4.63888e-006 1.14935e-005 -1.34705e-006 1.1472 -3.4929 2.6336 6.53198e-006 -4.57135e-006 9.52529e-006 0.8229 -2.3 1.6571 -4.76037e-006 5.92911e-006 2.67011e-007 -9.412 3.9771 -0.7758 -18.6246 -35.8016 -15.2641 -0.7531 -40.938 1.77636e-015 88.8586 28.4572 -101.725 8.88179e-016 -40.1986 0 4.75787 15.7394 5.97566 0 -4.4182 9.239 -2.01012e-006 -4.06778e-006 -1.32259e-006 9.4119 3.9773 -0.7758 6.59354 -0.612683 8.79829 0.7532 -40.9383 -1.77636e-015 -1.9491 58.8942 -0.870815 0 -40.1986 -1.42109e-014 3.27364 32.1445 1.35417 -8.88178e-016 -4.4182 9.239 7.95139e-016 -3.72721e-017 9.09285e-016 
8.15567 6.37803 9.27149 93.6027 0.57045 -178.676 0 8.7983 -4.7612 0.444484 1.92642 -0.355253 0 8.0291 0.4195 0.901719 3.85 -0.726077 0 9.9351 -2.2114 0.901727 3.84999 -0.726076 -8.88179e-016 22.3885 -0.4656 6.30223 9.20959 -1.48926 -0.0001 12.643 3.4389 6.45284e-006 11.6448 1.36998e-006 2.2603 21.606 7.4023 -10.3071 -13.577 -22.047 13.5163 -1.1332 -5.0146 25.5376 -23.5977 2.62442 -0.0995 -28.05 -0.2431 -33.6415 -43.3131 -17.2045 0.0679 -23.3996 -0.1402 -51.4248 -0.113609 -4.24184 0.7932 -9.069 2.5189 -2.09857e-006 1.26853e-006 -3.84673e-007 -0.8272 -3.3923 0.5977 1.30726e-006 3.92871e-005 5.17749e-007 -0.5649 -2.3158 0.4082 4.19713e-007 -2.47282e-007 7.6935e-008 0.9159 -9.2044 0.2193 -2.09857e-006 1.26853e-006 -3.84673e-007 0.0117 -4.1944 -0.0248 -0.0127999 0.00233862 9.35694e-005 0.0071 -2.3249 -0.0142 4.19713e-007 4.69971e-006 7.69518e-008 0.6113 -8.7231 -2.0637 -2.09857e-006 1.26853e-006 -3.84673e-007 -0.1927 -3.8059 -0.2383 -0.0160539 0.00297508 0.00086206 -0.1091 -2.1688 -0.1362 -4.61684e-006 7.6507e-006 -8.46519e-007 -0.6151 -8.0947 -3.5641 -2.09857e-006 1.26853e-006 -3.84673e-007 -0.4882 -2.341 -0.6462 -0.0125981 0.00314503 0.00283221 -0.3575 -1.7167 -0.4742 -2.56562e-006 2.04059e-006 -7.48858e-007 -1.42 -1.8761 1.4223 -2.09857e-006 1.26853e-006 -3.84673e-007 -1.1471 -3.4929 2.6334 1.30726e-006 3.92871e-005 5.17749e-007 -0.823 -2.3 1.6571 4.19713e-007 -2.47282e-007 7.6935e-008 -2.2603 21.606 7.4023 -14.9867 -16.5554 -2.5932 -13.5187 -1.1334 -5.0155 -31.3934 -46.1095 -5.57542 0.0994 -28.0499 -0.2431 71.3436 -60.5969 7.2644 -0.0679 -23.3996 -0.1402 43.3248 -4.08142 -7.98042 -0.7932 -9.0691 2.5189 -6.51956e-034 3.75827e-016 9.93923e-017 0.8272 -3.3923 0.5977 -3.97569e-016 -1.21445e-015 1.49089e-016 0.565 -2.3158 0.4082 3.14394e-033 -1.20824e-015 1.49089e-016 -0.916 -9.2044 0.2193 -6.51956e-034 3.75827e-016 9.93923e-017 -0.0117 -4.1944 -0.0248 0.0129732 0.00231573 -8.39437e-005 -0.0071 -2.3249 -0.0142 -2.26838e-033 -2.61526e-015 -4.96962e-017 -0.6113 -8.7231 -2.0637 -6.51956e-034 3.75827e-016 9.93923e-017 0.1927 -3.8059 -0.2383 0.0163078 0.00303965 -0.000873192 0.1091 -2.1688 -0.1362 3.97569e-016 1.31012e-014 4.47266e-016 0.6151 -8.0947 -3.564 -6.51956e-034 3.75827e-016 9.93923e-017 0.4882 -2.341 -0.6462 0.014568 0.00367166 -0.00325636 0.3574 -1.7166 -0.4742 -7.95139e-016 2.51587e-015 1.49089e-016 1.4199 -1.8761 1.4221 -6.51956e-034 3.75827e-016 9.93923e-017 1.1472 -3.4929 2.6336 -3.97569e-016 -1.21445e-015 1.49089e-016 0.8229 -2.3 1.6571 3.14394e-033 -1.20824e-015 1.49089e-016 -9.412 3.9771 -0.7758 -18.5256 -36.2201 -15.3338 -0.7531 -40.938 0 88.8601 28.4572 -101.723 -8.88179e-016 -40.1986 0 4.56285 15.799 5.51365 5.32907e-015 -4.4182 9.239 2.02228e-006 2.67256e-006 1.30899e-006 9.4119 3.9773 -0.7758 6.59056 -1.26028 8.86397 0.7532 -40.9383 -1.77636e-015 -1.80751 59.5533 -0.968855 0 -40.1986 -7.10543e-015 3.25915 32.1016 1.37366 4.44089e-016 -4.4182 9.239 3.27473e-031 1.46604e-015 -1.27983e-014 
